<?xml version="1.0"?>
<svg xmlns="http://www.w3.org/2000/svg" xmlns:xlink="http://www.w3.org/1999/xlink" xmlns:svgjs="http://svgjs.com/svgjs" version="1.1" width="512" height="512" x="0" y="0" viewBox="0 0 115.132 115.132" style="enable-background:new 0 0 512 512" xml:space="preserve" class=""><g>
<g xmlns="http://www.w3.org/2000/svg">
	<path d="M54.502,20.348H77.55c-0.797,4.801-4.551,8.785-9.621,9.619C61.566,31.016,55.556,26.712,54.502,20.348z M86.505,75.852   c-1.746,0.266-3.387-0.832-3.842-2.494l-1.967-7.14c1.705,15.214,1.689,30.731,1.689,30.731h-6.385   c-0.055,7.814-0.101,14.473-0.101,14.473c-0.015,2.062-1.696,3.723-3.761,3.709c-1.932-0.014-3.512-1.506-3.692-3.387   c0,0-0.644-6.848-1.387-14.795h-0.597l-1.354-15.748L64.74,96.949h-1.193c-0.746,7.947-1.387,14.795-1.387,14.795   c-0.191,2.055-2.014,3.564-4.068,3.371c-1.921-0.18-3.365-1.805-3.384-3.693c0,0-0.047-6.656-0.1-14.473h-7.73   c-0.456-7.771,3.638-42.229,4.559-49.834l-8.568,3.23l-0.389,0.146c-2.199,0.828-4.65-0.281-5.479-2.479   c-0.017-0.045-0.039-0.107-0.054-0.152l-2.804-8.393l-1.418-4.18l-0.716-2.072l-0.357-1.009l-0.17-0.471l-0.065-0.183   c-0.003-0.009-0.005-0.015-0.005-0.018c-0.187-0.336-0.331-0.701-0.396-1.102c-0.047-0.281-0.059-0.582-0.035-0.876   c0.013-0.147,0.033-0.292,0.063-0.433c0.028,0.125-0.08-0.494,0.836-1.612c0.525-0.722,1.514-1.029,2.405-1.081l0.62-0.865   c-0.134-0.154-0.246-0.328-0.334-0.521l-0.721-1.595c-0.492-1.088-0.008-2.373,1.08-2.865c0.175-0.08,0.357-0.122,0.541-0.15   l-4.244-8.495c-0.158-0.319-0.174-0.672-0.074-0.986l-0.427,0.215l-5.03-9.987L28.04,0l5.029,9.987l-0.245,0.125   c0.314,0.107,0.59,0.332,0.751,0.654l6.933,13.88c0.324,0.648,0.062,1.437-0.587,1.761c-0.103,0.051-0.208,0.085-0.315,0.107   l-1.746,2.438l0.745,1.494l0.981,2.018l1.924,4.018l1.775,3.754l13.238-6.111l-2.463-6.876l10.275,3.599l-0.006,0.604   c0.291-0.021,0.584-0.044,0.881-0.044c0.016,0,0.03,0,0.047,0c0.838,0.003,1.648,0.103,2.434,0.278l-0.01-0.84l10.277-3.599   l-2.849,7.946c0.181,0.146,0.36,0.294,0.528,0.441c2.115,1.904,3.558,3.891,4.861,5.877c1.286,1.991,2.371,4,3.357,6.03   c0.492,1.016,0.959,2.036,1.402,3.065l0.647,1.556l0.313,0.79l0.4,1.063l0.018,0.049c0.054,0.141,0.093,0.295,0.115,0.438   l2.644,17.417C89.685,73.807,88.39,75.566,86.505,75.852z M35.304,25.009l1.377-1.922l0.176,0.126l-1.077-2.156   c-0.2,0.006-0.396,0.047-0.579,0.13c-0.758,0.343-1.096,1.238-0.754,1.996l0.723,1.595C35.207,24.86,35.254,24.937,35.304,25.009z    M68.359,59.623c0-1.289-1.045-2.333-2.334-2.333c-1.288,0-2.332,1.044-2.332,2.333c0,1.287,1.044,2.333,2.332,2.333   C67.314,61.956,68.359,60.91,68.359,59.623z M68.359,50.436c0-1.289-1.045-2.333-2.334-2.333c-1.288,0-2.332,1.044-2.332,2.333   c0,1.288,1.044,2.332,2.332,2.332C67.314,52.768,68.359,51.724,68.359,50.436z M68.359,41.542c0-1.289-1.045-2.333-2.334-2.333   c-1.288,0-2.332,1.044-2.332,2.333s1.044,2.333,2.332,2.333C67.314,43.875,68.359,42.831,68.359,41.542z M47.433,19.467h37.184   c0.523,0,0.947-0.424,0.947-0.947s-0.424-0.947-0.947-0.947h-6.197v-4.666c0-4.188-1.746-6.346-5.934-6.346H59.882   c-4.188,0-5.522,2.158-5.522,6.346v4.666h-6.927c-0.522,0-0.947,0.424-0.947,0.947S46.911,19.467,47.433,19.467z" fill="#18abc9" data-original="#000000" style=""/>
</g>
<g xmlns="http://www.w3.org/2000/svg">
</g>
<g xmlns="http://www.w3.org/2000/svg">
</g>
<g xmlns="http://www.w3.org/2000/svg">
</g>
<g xmlns="http://www.w3.org/2000/svg">
</g>
<g xmlns="http://www.w3.org/2000/svg">
</g>
<g xmlns="http://www.w3.org/2000/svg">
</g>
<g xmlns="http://www.w3.org/2000/svg">
</g>
<g xmlns="http://www.w3.org/2000/svg">
</g>
<g xmlns="http://www.w3.org/2000/svg">
</g>
<g xmlns="http://www.w3.org/2000/svg">
</g>
<g xmlns="http://www.w3.org/2000/svg">
</g>
<g xmlns="http://www.w3.org/2000/svg">
</g>
<g xmlns="http://www.w3.org/2000/svg">
</g>
<g xmlns="http://www.w3.org/2000/svg">
</g>
<g xmlns="http://www.w3.org/2000/svg">
</g>
</g></svg>
