<?xml version="1.0"?>
<svg xmlns="http://www.w3.org/2000/svg" xmlns:xlink="http://www.w3.org/1999/xlink" xmlns:svgjs="http://svgjs.com/svgjs" version="1.1" width="512" height="512" x="0" y="0" viewBox="0 0 512 512" style="enable-background:new 0 0 512 512" xml:space="preserve"><g><g xmlns="http://www.w3.org/2000/svg" fill="rgb(0,0,0)"><path d="m215 263h112v114h-112z" fill="#18abc9" data-original="#000000" style=""/><path d="m451.879 1.577-112 32c-6.44 1.84-10.879 7.726-10.879 14.423v9h-58v-42c0-8.284-6.716-15-15-15h-80c-8.284 0-15 6.716-15 15v42.838c-67.406 7.486-120 64.793-120 134.162 0 8.284 6.716 15 15 15s15-6.716 15-15c0-52.804 39.183-96.623 90-103.924v23.493c-34.312 19.609-56 56.462-56 96.431v289c0 8.284 6.716 15 15 15h192c8.284 0 15-6.716 15-15v-90h-127c-8.284 0-15-6.716-15-15v-144c0-8.284 6.716-15 15-15h127v-25c0-41.525-22.69-77.437-56-96.438v-24.562h58v9c0 6.697 4.439 12.583 10.879 14.423l112 32c9.57 2.732 19.121-4.457 19.121-14.423v-112c0-9.947-9.535-17.163-19.121-14.423z" fill="#18abc9" data-original="#000000" style=""/></g></g></svg>
