<?xml version="1.0"?>
<svg xmlns="http://www.w3.org/2000/svg" xmlns:xlink="http://www.w3.org/1999/xlink" xmlns:svgjs="http://svgjs.com/svgjs" version="1.1" width="512" height="512" x="0" y="0" viewBox="0 0 512 512" style="enable-background:new 0 0 512 512" xml:space="preserve"><g><path xmlns="http://www.w3.org/2000/svg" d="m331 497v-181c0-8.289062-6.710938-15-15-15h-120c-8.289062 0-15 6.710938-15 15v181c0 8.289062 6.710938 15 15 15h120c8.289062 0 15-6.710938 15-15zm0 0" fill="#ffffff" data-original="#000000" style=""/><path xmlns="http://www.w3.org/2000/svg" d="m497 421h-121c-8.289062 0-15 6.710938-15 15v61c0 8.289062 6.710938 15 15 15h121c8.289062 0 15-6.710938 15-15v-61c0-8.289062-6.710938-15-15-15zm0 0" fill="#ffffff" data-original="#000000" style=""/><path xmlns="http://www.w3.org/2000/svg" d="m0 497c0 8.289062 6.710938 15 15 15h121c8.289062 0 15-6.710938 15-15v-121c0-8.289062-6.710938-15-15-15h-121c-8.289062 0-15 6.710938-15 15zm0 0" fill="#ffffff" data-original="#000000" style=""/><path xmlns="http://www.w3.org/2000/svg" d="m226 30c0 16.539062 13.460938 30 30 30s30-13.460938 30-30-13.460938-30-30-30-30 13.460938-30 30zm0 0" fill="#ffffff" data-original="#000000" style=""/><path xmlns="http://www.w3.org/2000/svg" d="m91 60c0 16.539062 13.460938 30 30 30s30-13.460938 30-30-13.460938-30-30-30-30 13.460938-30 30zm0 0" fill="#ffffff" data-original="#000000" style=""/><path xmlns="http://www.w3.org/2000/svg" d="m421 60c0-16.539062-13.460938-30-30-30s-30 13.460938-30 30 13.460938 30 30 30 30-13.460938 30-30zm0 0" fill="#ffffff" data-original="#000000" style=""/><path xmlns="http://www.w3.org/2000/svg" d="m360.707031 258.945312 27.640625-139.214843c-12.167968-.542969-23.351562-4.648438-32.589844-11.40625l-37.898437 56.851562-39.757813-79.515625c-6.855468 2.730469-14.28125 4.339844-22.101562 4.339844s-15.246094-1.609375-22.101562-4.339844l-39.757813 79.515625-37.898437-56.851562c-9.238282 6.757812-20.421876 10.863281-32.589844 11.40625l27.640625 139.214843c1.40625 7 7.558593 12.054688 14.707031 12.054688h180c7.148438 0 13.300781-5.054688 14.707031-12.054688zm0 0" fill="#ffffff" data-original="#000000" style=""/></g></svg>
