<?xml version="1.0"?>
<svg xmlns="http://www.w3.org/2000/svg" xmlns:xlink="http://www.w3.org/1999/xlink" xmlns:svgjs="http://svgjs.com/svgjs" version="1.1" width="512" height="512" x="0" y="0" viewBox="0 0 512 512" style="enable-background:new 0 0 512 512" xml:space="preserve"><g>
<g xmlns="http://www.w3.org/2000/svg">
	<g>
		<path d="M422.205,61c-18.384,0.161-30.776,4.38-42.451,8.276c-20.83,6.934-36.498,10.6-56.045,0.806    c-5.544-2.767-13.233-5.898-22.709-7.663V46c0-24.814-20.186-45-45-45c-24.814,0-45,20.186-45,45v16.419    c-9.476,1.765-16.165,4.896-21.709,7.663c-19.548,9.796-36.222,6.127-57.045-0.806C120.615,65.395,107.432,61,90.029,61    C80.577,61,81.608,59.03,0,222.47V241c0,49.629,40.371,90,90,90s90-40.371,90-90v-18.545L116.631,95.717    c2.007,0.645,4.043,1.318,6.123,2.007c28.795,9.609,52.522,12.885,79.955-0.806c2.873-1.439,5.469-2.646,8.291-3.636V361h90    V93.281c2.822,0.991,5.418,2.197,8.291,3.636c27.418,13.683,51.132,10.424,79.955,0.806c2.08-0.688,4.116-1.362,6.123-2.007    L332,222.455V241c0,49.629,40.371,90,90,90c49.629,0,90-40.371,90-90v-18.53C432.362,62.774,431.681,61,422.205,61z M140.729,211    H39.243c13.392-26.849,36.2-72.583,50.684-101.616L140.729,211z M371.271,211l50.803-101.616    c14.483,29.033,37.291,74.767,50.683,101.616H371.271z" fill="#ffffff" data-original="#000000" style=""/>
	</g>
</g>
<g xmlns="http://www.w3.org/2000/svg">
	<g>
		<path d="M361,451H151c-33.137,0-60,26.862-60,60h330C421,477.862,394.137,451,361,451z" fill="#ffffff" data-original="#000000" style=""/>
	</g>
</g>
<g xmlns="http://www.w3.org/2000/svg">
	<g>
		<rect x="211" y="391" width="90" height="30" fill="#ffffff" data-original="#000000" style=""/>
	</g>
</g>
<g xmlns="http://www.w3.org/2000/svg">
</g>
<g xmlns="http://www.w3.org/2000/svg">
</g>
<g xmlns="http://www.w3.org/2000/svg">
</g>
<g xmlns="http://www.w3.org/2000/svg">
</g>
<g xmlns="http://www.w3.org/2000/svg">
</g>
<g xmlns="http://www.w3.org/2000/svg">
</g>
<g xmlns="http://www.w3.org/2000/svg">
</g>
<g xmlns="http://www.w3.org/2000/svg">
</g>
<g xmlns="http://www.w3.org/2000/svg">
</g>
<g xmlns="http://www.w3.org/2000/svg">
</g>
<g xmlns="http://www.w3.org/2000/svg">
</g>
<g xmlns="http://www.w3.org/2000/svg">
</g>
<g xmlns="http://www.w3.org/2000/svg">
</g>
<g xmlns="http://www.w3.org/2000/svg">
</g>
<g xmlns="http://www.w3.org/2000/svg">
</g>
</g></svg>
