<?xml version="1.0"?>
<svg xmlns="http://www.w3.org/2000/svg" xmlns:xlink="http://www.w3.org/1999/xlink" xmlns:svgjs="http://svgjs.com/svgjs" version="1.1" width="512" height="512" x="0" y="0" viewBox="0 0 47 47" style="enable-background:new 0 0 512 512" xml:space="preserve" class=""><g>
<g xmlns="http://www.w3.org/2000/svg">
	<g>
		<path d="M17.805,9.9c2.5,0,4.5-2.9,4.5-5.4s-2-4.5-4.5-4.5s-4.5,2-4.5,4.5S15.305,9.9,17.805,9.9z" fill="#18abc9" data-original="#000000" style=""/>
		<path d="M19.005,23.6c0-3.2,1.5-6.1,3.9-7.899v-0.9c0.2,0,0.3,0.1,0.5,0.1v0.4c1-0.7,2.2-1.2,3.4-1.5c0,0,0-0.2-0.1-0.5    c-0.2-0.4-0.301-1-1.101-1.5c-0.1,0-3.7-1.3-7.1-1.5h-1.4c-3.3,0.2-6.9,1.5-7.1,1.5c-1.1,0.4-1.2,1.4-1.2,1.5l-1.3,12.9    c-0.1,1,0.6,1.899,1.6,2c0.1,0,0.1,0,0.2,0c0.9,0,1.7-0.7,1.8-1.601l1.3-11.8c0.2,0,0.3-0.1,0.5-0.1v12.2l-1.4,17.699    c-0.1,1.2,0.8,2.2,2,2.301c0.1,0,0.1,0,0.2,0c1.1,0,2-0.9,2.1-2V44.6v-19h3.3L19.005,23.6L19.005,23.6z" fill="#18abc9" data-original="#000000" style=""/>
		<path d="M36.205,28.7V23.6c0-3.899-3.2-7.1-7.101-7.1c-3.899,0-7.1,3.2-7.1,7.1V28.7h-3.3V47h20.8V28.7H36.205z M32.705,28.7    h-7.101V23.6c0-2,1.601-3.6,3.5-3.6c2,0,3.5,1.6,3.5,3.6V28.7H32.705z" fill="#18abc9" data-original="#000000" style=""/>
	</g>
</g>
<g xmlns="http://www.w3.org/2000/svg">
</g>
<g xmlns="http://www.w3.org/2000/svg">
</g>
<g xmlns="http://www.w3.org/2000/svg">
</g>
<g xmlns="http://www.w3.org/2000/svg">
</g>
<g xmlns="http://www.w3.org/2000/svg">
</g>
<g xmlns="http://www.w3.org/2000/svg">
</g>
<g xmlns="http://www.w3.org/2000/svg">
</g>
<g xmlns="http://www.w3.org/2000/svg">
</g>
<g xmlns="http://www.w3.org/2000/svg">
</g>
<g xmlns="http://www.w3.org/2000/svg">
</g>
<g xmlns="http://www.w3.org/2000/svg">
</g>
<g xmlns="http://www.w3.org/2000/svg">
</g>
<g xmlns="http://www.w3.org/2000/svg">
</g>
<g xmlns="http://www.w3.org/2000/svg">
</g>
<g xmlns="http://www.w3.org/2000/svg">
</g>
</g></svg>
