<?xml version="1.0"?>
<svg xmlns="http://www.w3.org/2000/svg" xmlns:xlink="http://www.w3.org/1999/xlink" xmlns:svgjs="http://svgjs.com/svgjs" version="1.1" width="512" height="512" x="0" y="0" viewBox="0 0 512 512" style="enable-background:new 0 0 512 512" xml:space="preserve"><g><g xmlns="http://www.w3.org/2000/svg"><path d="m362.143 301.252c-9.111-5.438-19.748-8.573-31.107-8.573-33.576 0-60.893 27.316-60.893 60.893 0 11.359 3.135 21.996 8.572 31.107z" fill="#18abc9" data-original="#000000" style=""/><path d="m299.929 405.891c9.111 5.437 19.748 8.572 31.107 8.572 33.576 0 60.892-27.315 60.892-60.892 0-11.359-3.135-21.996-8.572-31.107z" fill="#18abc9" data-original="#000000" style=""/><path d="m180.096 195.144v30.024h-15.023c-24.826 0-45.024 20.198-45.024 45.024v196.783c0 8.284-6.74 15.024-15.024 15.024s-15.025-6.739-15.025-15.023v-271.88h29.976v-30h-29.976v-45h-30v45h-29.976v30h29.976v271.88c0 24.826 20.197 45.024 45.023 45.024s45.024-20.198 45.024-45.024v-196.784c0-8.284 6.74-15.024 15.024-15.024h15.023v256.832h301.88v-316.856zm60.048 158.428c0-50.118 40.774-90.893 90.893-90.893s90.892 40.774 90.892 90.893-40.773 90.892-90.892 90.892-90.893-40.774-90.893-90.892z" fill="#18abc9" data-original="#000000" style=""/><path d="m210.12 135.096h241.832v30.024h-241.832z" fill="#18abc9" data-original="#000000" style=""/><path d="m273.547 83.845 21.215 21.213c9.709-9.71 22.592-15.058 36.274-15.058 13.684 0 26.566 5.347 36.275 15.056l21.213-21.213c-15.375-15.375-35.791-23.843-57.488-23.843s-42.113 8.469-57.489 23.845z" fill="#18abc9" data-original="#000000" style=""/><path d="m331.037 30c29.684 0 57.626 11.595 78.681 32.648l21.213-21.213c-26.721-26.72-62.198-41.435-99.894-41.435-37.698 0-73.176 14.716-99.896 41.438l21.213 21.213c21.055-21.055 48.999-32.651 78.683-32.651z" fill="#18abc9" data-original="#000000" style=""/></g></g></svg>
