<?xml version="1.0"?>
<svg xmlns="http://www.w3.org/2000/svg" xmlns:xlink="http://www.w3.org/1999/xlink" xmlns:svgjs="http://svgjs.com/svgjs" version="1.1" width="512" height="512" x="0" y="0" viewBox="0 0 512 512" style="enable-background:new 0 0 512 512" xml:space="preserve" class=""><g>
<g xmlns="http://www.w3.org/2000/svg" transform="translate(1 1)">
	<g>
		<g>
			<path d="M489.667-1H20.333C8.551-1-1,8.551-1,20.333v341.333C-1,373.449,8.551,383,20.333,383H127     c11.782,0,21.333-9.551,21.333-21.333s-9.551-21.333-21.333-21.333H41.667V41.667h426.667v298.667H383     c-11.782,0-21.333,9.551-21.333,21.333S371.218,383,383,383h106.667c11.782,0,21.333-9.551,21.333-21.333V20.333     C511,8.551,501.449-1,489.667-1z" fill="#ffffff" data-original="#000000" style="" class=""/>
			<path d="M272.75,285.833c-8.444-12.666-27.057-12.666-35.501,0l-128,192C99.798,492.01,109.961,511,127,511h256     c17.039,0,27.202-18.99,17.75-33.167L272.75,285.833z M166.862,468.333L255,336.126l88.138,132.208H166.862z" fill="#ffffff" data-original="#000000" style="" class=""/>
		</g>
	</g>
</g>
<g xmlns="http://www.w3.org/2000/svg">
</g>
<g xmlns="http://www.w3.org/2000/svg">
</g>
<g xmlns="http://www.w3.org/2000/svg">
</g>
<g xmlns="http://www.w3.org/2000/svg">
</g>
<g xmlns="http://www.w3.org/2000/svg">
</g>
<g xmlns="http://www.w3.org/2000/svg">
</g>
<g xmlns="http://www.w3.org/2000/svg">
</g>
<g xmlns="http://www.w3.org/2000/svg">
</g>
<g xmlns="http://www.w3.org/2000/svg">
</g>
<g xmlns="http://www.w3.org/2000/svg">
</g>
<g xmlns="http://www.w3.org/2000/svg">
</g>
<g xmlns="http://www.w3.org/2000/svg">
</g>
<g xmlns="http://www.w3.org/2000/svg">
</g>
<g xmlns="http://www.w3.org/2000/svg">
</g>
<g xmlns="http://www.w3.org/2000/svg">
</g>
</g></svg>
